<svg width="240" height="40" viewBox="0 0 240 40" fill="none" xmlns="http://www.w3.org/2000/svg">
<path d="M34.1097 9.46191H30.7773V30.1775H34.1097V9.46191Z" fill="white"/>
<path d="M50.4729 18.2183C50.4729 20.5475 50.5053 22.6199 50.6433 24.7751C49.8237 23.1695 48.8817 21.5111 47.7861 19.7459L41.2725 9.46312H37.8633V30.1787H41.0481V21.2747C41.0481 18.6107 41.0097 16.5515 40.9209 14.5547C41.8533 16.3823 42.9789 18.2315 44.0001 19.8611L50.4537 30.1811H53.6253V9.46191H50.4705L50.4729 18.2183Z" fill="white"/>
<path d="M71.6064 11.9029C69.738 10.1605 67.008 9.31445 63.2616 9.31445C61.3971 9.31807 59.5353 9.45804 57.6912 9.73325L57.3828 9.77888V30.0817L57.7044 30.1177C59.2844 30.2852 60.8724 30.3653 62.4612 30.3577C66.4596 30.3577 69.6036 29.3269 71.556 27.3745C72.5617 26.3028 73.3433 25.0411 73.8549 23.6634C74.3666 22.2856 74.598 20.8196 74.5356 19.3513C74.6082 17.9734 74.3839 16.5961 73.8779 15.3125C73.372 14.0289 72.5961 12.8689 71.6028 11.9113M62.9628 27.5653C62.2115 27.575 61.4603 27.5422 60.7128 27.4669V12.2953C61.5941 12.1532 62.4854 12.0826 63.378 12.0841C64.4425 12.0077 65.5115 12.146 66.5216 12.4907C67.5317 12.8353 68.4622 13.3793 69.258 14.0905C69.9126 14.81 70.415 15.6546 70.7349 16.5733C71.0547 17.492 71.1855 18.4659 71.1192 19.4365C71.1192 24.6745 68.2236 27.5593 62.9676 27.5593" fill="white"/>
<path d="M80.4762 9.46191H77.1426V30.1775H80.4762V9.46191Z" fill="white"/>
<path d="M92.891 21.7523H96.9254V27.1199C95.9415 27.4368 94.9088 27.575 93.8762 27.5279C89.3414 27.5279 86.525 24.5747 86.525 19.8203C86.525 15.0839 89.4675 12.1403 94.2051 12.1403C95.6734 12.0963 97.133 12.3796 98.4782 12.9695L98.8538 13.1375L99.6831 10.3331L99.395 10.2047C97.7639 9.55312 96.0202 9.22975 94.2638 9.25314C87.5714 9.25314 83.075 13.5467 83.075 19.9331C82.9673 21.3479 83.1696 22.7692 83.668 24.0976C84.1664 25.4261 84.9489 26.6298 85.9606 27.6245C86.9724 28.6193 88.1891 29.3811 89.5259 29.8569C90.8626 30.3327 92.2871 30.5109 93.6999 30.3791C95.8398 30.3793 97.9628 29.9994 99.9698 29.2571L100.201 29.1683V18.9599H92.8935L92.891 21.7523Z" fill="white"/>
<path d="M111.942 9.13534C106.228 9.13534 102.236 13.5753 102.236 19.9353C102.236 26.1561 106.076 30.4954 111.586 30.4954C117.264 30.4954 121.231 26.0902 121.231 19.7818C121.231 13.4086 117.498 9.12695 111.942 9.12695M111.734 27.667C108.725 27.667 105.689 25.2466 105.689 19.8406C105.689 15.9154 107.568 11.9553 111.764 11.9553C115.921 11.9553 117.781 15.9154 117.781 19.8406C117.781 23.7358 115.912 27.667 111.734 27.667Z" fill="white"/>
<path d="M139.307 9.46191L135.661 19.3703C134.925 21.3863 134.302 23.3519 133.834 25.1303C133.325 23.1587 132.754 21.2399 132.128 19.4099L128.632 9.46792H124.747L123.307 30.1835H126.495L127.051 21.2711C127.178 19.1039 127.276 16.7603 127.353 14.7191C127.833 16.4651 128.425 18.3335 129.106 20.2955L132.362 30.0647H134.923L138.481 20.2427C139.269 18.0263 139.913 16.1291 140.434 14.5031C140.474 16.2587 140.577 18.4271 140.746 21.0599L141.208 30.1799H144.488L143.197 9.46433L139.307 9.46191Z" fill="white"/>
<path d="M147.684 9.4668V30.1824H159.684V27.324H151.021V20.8092H158.763V17.9508H151.021V12.3252H159.237V9.4668H147.684Z" fill="white"/>
<path d="M177.301 11.9029C175.432 10.1605 172.702 9.31445 168.957 9.31445C167.092 9.31805 165.231 9.45802 163.387 9.73325L163.078 9.77888V30.0817L163.4 30.1177C164.98 30.2852 166.568 30.3653 168.157 30.3577C172.155 30.3577 175.3 29.3269 177.251 27.3745C178.258 26.3031 179.04 25.0415 179.552 23.6638C180.064 22.286 180.296 20.8199 180.235 19.3513C180.307 17.9734 180.082 16.596 179.576 15.3124C179.07 14.0288 178.294 12.8689 177.301 11.9113M168.66 27.5653C167.91 27.575 167.159 27.5422 166.412 27.4669V12.2953C167.293 12.1531 168.183 12.0825 169.076 12.0841C170.14 12.0078 171.209 12.1461 172.219 12.4907C173.229 12.8354 174.16 13.3794 174.956 14.0905C175.61 14.8102 176.112 15.6548 176.432 16.5735C176.752 17.4921 176.883 18.466 176.817 19.4365C176.817 24.6745 173.921 27.5593 168.664 27.5593" fill="white"/>
<path d="M186.17 9.46191H182.836V30.1775H186.17V9.46191Z" fill="white"/>
<path d="M199.658 12.0235C200.993 12.0003 202.317 12.2715 203.536 12.8179L203.92 13.0039L204.745 10.2091L204.49 10.0699C202.939 9.40026 201.257 9.09131 199.57 9.16627C193.109 9.16627 188.77 13.5199 188.77 19.9987C188.77 26.3815 192.776 30.5047 198.979 30.5047C200.848 30.5504 202.707 30.2156 204.443 29.5207L204.714 29.3935L203.994 26.5987L203.597 26.7919C202.315 27.3367 200.934 27.6073 199.542 27.5863C194.958 27.5863 192.222 24.7159 192.222 19.9063C192.222 14.9695 195.003 12.0211 199.662 12.0211" fill="white"/>
<path d="M212.661 9.46191L205.623 30.1775H209.089L211.135 23.8895H217.703L219.839 30.1775H223.361L216.292 9.46191H212.661ZM216.923 21.1499H211.91L213.71 15.8363C213.962 15.0431 214.19 14.2343 214.401 13.4231C214.607 14.2031 214.838 15.0119 215.131 15.8735L216.923 21.1499Z" fill="white"/>
<path d="M225.402 9.4668V30.1824H237.282V27.2952H228.738V9.4668H225.402Z" fill="white"/>
<path d="M24.3258 18.6348H13.041V30.1776H24.3258V18.6348Z" fill="white"/>
<path d="M24.3272 9.46094H3.59961V17.7949H24.3272V9.46094Z" fill="white"/>
<path d="M12.2036 22.0156H3.59961V30.178H12.2036V22.0156Z" fill="white"/>
<path d="M12.2036 18.6348H3.59961V21.1776H12.2036V18.6348Z" fill="white"/>
</svg>
